<svg id="Layer_1" data-name="Layer 1" xmlns="http://www.w3.org/2000/svg" viewBox="0 0 398.54 400.64"><defs><style>.cls-1{fill:#231f20;}</style></defs><path class="cls-1" d="M451.93,221.4,121.27,310.68A31,31,0,0,0,99,346.87l44.83,216.38a31,31,0,0,0,26.26,24.42L390.44,621A31,31,0,0,0,424,599.76l71.42-209a31,31,0,0,0-4.83-28.22l-1.22-1.61a31,31,0,0,0-30.94-11.59L273.74,402.84a31,31,0,0,0-21.57,16.77L241.25,442c-10.64,21.86,9.07,46.21,32.67,40.35l96.22-23.89a31,31,0,0,1,30.78,9.66l9.59,11a31,31,0,0,1,6.15,30l-19.38,59.67A31,31,0,0,1,364.43,590L261.9,575.24A31,31,0,0,1,235,550.75l-25.05-120.6a31,31,0,0,0-14.6-20.39L151,383.64a31,31,0,0,1-14.27-19h0a31,31,0,0,1,21.85-37.6l26.4-7.2a31,31,0,0,1,19.92,1.24l47.33,19.44a31,31,0,0,0,20.64,1l173.52-51.84a31,31,0,0,0,18.84-15.83l11.25-22.5C484.66,235,469.63,216.62,451.93,221.4Z" transform="translate(-98.37 -220.63)"/></svg>